<svg xmlns="http://www.w3.org/2000/svg" xmlns:xlink="http://www.w3.org/1999/xlink" viewBox="0 0 340.35 340.35"><defs><style>.cls-1{fill:none;stroke-miterlimit:10;stroke-width:20px;stroke:url(#linear-gradient);}.cls-2{fill:url(#linear-gradient-2);}</style><linearGradient id="linear-gradient" x1="2.53" y1="172.94" x2="337.82" y2="172.94" gradientUnits="userSpaceOnUse"><stop offset="0" stop-color="#305099"/><stop offset="0.53" stop-color="#243c73"/><stop offset="1" stop-color="#18284d"/></linearGradient><linearGradient id="linear-gradient-2" x1="83.77" y1="172.94" x2="256.57" y2="172.94" gradientUnits="userSpaceOnUse"><stop offset="0" stop-color="#305099"/><stop offset="0.53" stop-color="#243c73"/></linearGradient></defs><title>icon 4</title><g id="Плюшки"><path class="cls-1" d="M327.82,172.94A157.65,157.65,0,1,1,170.17,15.3,156.93,156.93,0,0,1,327.82,172.94Z"/><path class="cls-2" d="M125.55,109.94a41.5,41.5,0,0,0-1.26-10.22,4.07,4.07,0,0,1,.34-2.82,11.54,11.54,0,0,1,4.62-4.82,36.65,36.65,0,0,1,15.53-5.29c3.67-.42,5.64.84,7,4.33a21.75,21.75,0,0,0,8.07,10.1c6.08,4.17,15.1,3.77,21.26-.8A20.09,20.09,0,0,0,188,91.64a9.23,9.23,0,0,1,3.43-4.16,3.75,3.75,0,0,1,2.11-.72c7.38.3,14,2.62,19.29,7.93l.41.46c2.41,2.35,2.71,5,1.34,8a18.88,18.88,0,0,0-.91,13.41,17.72,17.72,0,0,0,17.68,13.05,24,24,0,0,0,10.62-2.45,6.1,6.1,0,0,1,6.71,1.15,22.42,22.42,0,0,1,5,8.17A44.78,44.78,0,0,1,256.49,147a6.55,6.55,0,0,1-4.28,7.34c-6.5,2.68-11.14,7.18-13,14.1a18.66,18.66,0,0,0,11.07,22,13.63,13.63,0,0,1,3.89,2.65c2.07,1.94,2.29,4.54,1.94,7.19a31,31,0,0,1-5.09,13.55,11,11,0,0,1-6.94,4.9,8.83,8.83,0,0,1-4.41-.45c-3.46-1-7-1.82-10.58-1.34a32.43,32.43,0,0,0-6.91,1.6c-3.45,1.28-5.61,4.12-7.22,7.28a19.06,19.06,0,0,0-.26,17.08,7.52,7.52,0,0,1-2.47,9.52,33.94,33.94,0,0,1-17.76,6.8,4.84,4.84,0,0,1-4.3-1.77,13.24,13.24,0,0,1-2.13-3.27,23.18,23.18,0,0,0-8-10,17.62,17.62,0,0,0-21.55,1.15,23.86,23.86,0,0,0-7,9.56c-1.13,2.88-3.44,4.14-6.4,4.29a23,23,0,0,1-8.43-1.58A36,36,0,0,1,125.62,252l-.14-.1c-4-3.29-4.84-5.74-2.66-10.41a17.73,17.73,0,0,0,1-13.78c-2.07-5.87-6-9.77-12.48-10.55a29.37,29.37,0,0,0-12.09,1.08c-3.83,1.14-7,.14-9.27-3.14a33.56,33.56,0,0,1-6-16.33,12.91,12.91,0,0,1,.43-3.9,5.11,5.11,0,0,1,3.28-3.64,25.36,25.36,0,0,0,11.9-9.83,16.45,16.45,0,0,0-2.08-20.44,25.45,25.45,0,0,0-9-6.44c-2.69-1.05-3.88-3.09-4.44-5.67a15.33,15.33,0,0,1,.5-6.79,32.49,32.49,0,0,1,4.67-10.94,17.94,17.94,0,0,1,2.34-2.74,5.35,5.35,0,0,1,5.6-1.34,47.4,47.4,0,0,0,6.35,1.74c6.22,1,11.88-.3,16.73-4.56a14.19,14.19,0,0,0,4.45-8.11C125.1,113.69,125.36,111.23,125.55,109.94ZM170,132.47a40.31,40.31,0,1,0,40.39,40.27A40.22,40.22,0,0,0,170,132.47Z"/></g></svg>