<svg xmlns="http://www.w3.org/2000/svg" xmlns:xlink="http://www.w3.org/1999/xlink" viewBox="0 0 340.35 340.35"><defs><style>.cls-1{fill:none;stroke-width:20px;stroke:url(#linear-gradient);}.cls-1,.cls-2{stroke-miterlimit:10;}.cls-2{fill:#ffd17d;stroke:#fff;stroke-width:2px;}.cls-3{fill:url(#linear-gradient-2);}</style><linearGradient id="linear-gradient" x1="0.09" y1="170.46" x2="340.23" y2="170.46" gradientUnits="userSpaceOnUse"><stop offset="0" stop-color="#305099"/><stop offset="0.53" stop-color="#243c73"/><stop offset="1" stop-color="#18284d"/></linearGradient><linearGradient id="linear-gradient-2" x1="119.91" y1="227.7" x2="235.36" y2="227.7" gradientUnits="userSpaceOnUse"><stop offset="0" stop-color="#305099"/><stop offset="0.53" stop-color="#243c73"/></linearGradient></defs><title>icon 2</title><g id="Плюшки"><path class="cls-1" d="M330.23,170.46A160.07,160.07,0,1,1,170.16,10.39,159.41,159.41,0,0,1,330.23,170.46Z"/><path class="cls-2" d="M138.39,194.61a17.23,17.23,0,0,1-1.1-4.5,6.19,6.19,0,0,0-6.41-5.64,6.43,6.43,0,0,1-5.94-8.34,6.47,6.47,0,0,0-4.06-8.06c-4.21-1.63-5.65-5.85-3.31-9.67,2.08-3.39,1.7-6.49-1.38-9.08a6.42,6.42,0,0,1-1.33-8.89,7.5,7.5,0,0,1,1.34-1.36,6.46,6.46,0,0,0,1.57-8.77,7.13,7.13,0,0,1-1.24-3,6.1,6.1,0,0,1,4-6.87,6.83,6.83,0,0,0,4.32-8.58,6.17,6.17,0,0,1,5.77-7.92,6.93,6.93,0,0,0,6.81-6.9,6.21,6.21,0,0,1,7.65-5.74c2.41.6,4.67.58,6.7-1.09a7,7,0,0,0,2-2.93c1.68-4.2,5.92-5.57,9.72-3.15a6.51,6.51,0,0,0,9.14-1.6,6.31,6.31,0,0,1,10,0c2.28,2.94,5.88,3.75,8.94,1.63a6.57,6.57,0,0,1,10.06,3.31,6.32,6.32,0,0,0,7.76,4c4.88-1.18,8.24,1.33,8.55,6.37.21,3.42,2.79,5.77,6.59,6a6.4,6.4,0,0,1,6,7.73,9.42,9.42,0,0,0-.41,2.24c0,3,1.33,5.39,4.18,6.33a6.54,6.54,0,0,1,3.27,10.06,6.37,6.37,0,0,0,1.3,8.64c3.81,3.24,3.81,7.41,0,10.59a6.46,6.46,0,0,0-1.68,8,9.63,9.63,0,0,0,.63,1,6.17,6.17,0,0,1-2.89,9.28,7,7,0,0,0-4.45,8.94c1.06,3.61-1.86,7.39-5.62,7.64-4.43.3-6.64,2.45-6.94,6.82a10.69,10.69,0,0,1-1.11,3.4,6.48,6.48,0,0,1-7.23,2.38,6.38,6.38,0,0,0-8,4.06c-1.74,4.33-5.91,5.69-9.87,3.22a6.39,6.39,0,0,0-8.94,1.48,6.4,6.4,0,0,1-10.31-.06,6.28,6.28,0,0,0-8.74-1.48A6.59,6.59,0,0,1,153.66,201c-1.13-3.42-4.41-4.93-7.9-4a7.23,7.23,0,0,1-3.07.24A7.54,7.54,0,0,1,138.39,194.61Z"/><path class="cls-3" d="M138.39,194.61a7.54,7.54,0,0,0,4.3,2.63,7.23,7.23,0,0,0,3.07-.24c3.49-.91,6.77.6,7.9,4a6.59,6.59,0,0,0,10.09,3.21,6.28,6.28,0,0,1,8.74,1.48,6.4,6.4,0,0,0,10.31.06,6.39,6.39,0,0,1,8.94-1.48c4,2.47,8.13,1.11,9.87-3.22a6.38,6.38,0,0,1,8-4.06,6.48,6.48,0,0,0,7.23-2.38,31.31,31.31,0,0,1,2.35,5.57q8,20.28,15.89,40.57c.08.21.15.43.28.8l-12-4.38c-6.76-2.49-13.52-5-20.27-7.48-.86-.32-1.19-.15-1.59.65q-7.44,14.67-14.94,29.29c-.2.38-.29.84-.76,1.13-2.68-6.86-5.37-13.7-8.15-20.79-2.77,7.06-5.45,13.91-8.15,20.78-.5-.24-.58-.72-.76-1.08q-7.48-14.62-14.93-29.28c-.41-.8-.68-1-1.65-.69-10.36,3.86-20.75,7.65-31.13,11.46l-1.14.41,4.76-12.12,13.26-33.9C138.06,195.24,138.23,194.93,138.39,194.61Z"/></g></svg>