<svg xmlns="http://www.w3.org/2000/svg" xmlns:xlink="http://www.w3.org/1999/xlink" viewBox="0 0 340.35 340.35"><defs><style>.cls-1{fill:none;stroke-miterlimit:10;stroke-width:20px;stroke:url(#linear-gradient);}.cls-2{fill:url(#linear-gradient-2);}.cls-3{fill:url(#linear-gradient-3);}.cls-4{fill:url(#linear-gradient-4);}.cls-5{fill:url(#linear-gradient-5);}.cls-6{fill:url(#linear-gradient-6);}.cls-7{fill:url(#linear-gradient-7);}</style><linearGradient id="linear-gradient" x1="0.34" y1="170.31" x2="340.18" y2="170.31" gradientUnits="userSpaceOnUse"><stop offset="0" stop-color="#305099"/><stop offset="0.53" stop-color="#243c73"/><stop offset="1" stop-color="#18284d"/></linearGradient><linearGradient id="linear-gradient-2" x1="101.45" y1="223.27" x2="127.35" y2="223.27" gradientUnits="userSpaceOnUse"><stop offset="0" stop-color="#305099"/><stop offset="0.53" stop-color="#243c73"/></linearGradient><linearGradient id="linear-gradient-3" x1="137.39" y1="226.6" x2="240.43" y2="226.6" xlink:href="#linear-gradient-2"/><linearGradient id="linear-gradient-4" x1="101.45" y1="112.41" x2="127.35" y2="112.41" xlink:href="#linear-gradient-2"/><linearGradient id="linear-gradient-5" x1="137.39" y1="114.01" x2="240.43" y2="114.01" xlink:href="#linear-gradient-2"/><linearGradient id="linear-gradient-6" x1="101.18" y1="167.84" x2="127.08" y2="167.84" xlink:href="#linear-gradient-2"/><linearGradient id="linear-gradient-7" x1="137.12" y1="170.31" x2="240.15" y2="170.31" xlink:href="#linear-gradient-2"/></defs><title>icon 3</title><g id="Плюшки"><path class="cls-1" d="M330.18,170.31A159.92,159.92,0,1,1,170.26,10.39,159.24,159.24,0,0,1,330.18,170.31Z"/><circle class="cls-2" cx="114.4" cy="223.27" r="12.95"/><rect class="cls-3" x="137.39" y="213.45" width="103.03" height="26.31" rx="1.75"/><circle class="cls-4" cx="114.4" cy="112.41" r="12.95"/><rect class="cls-5" x="137.39" y="100.86" width="103.03" height="26.31" rx="1.75"/><circle class="cls-6" cx="114.13" cy="167.84" r="12.95"/><rect class="cls-7" x="137.12" y="157.15" width="103.03" height="26.31" rx="1.75"/></g></svg>