<svg xmlns="http://www.w3.org/2000/svg" xmlns:xlink="http://www.w3.org/1999/xlink" viewBox="0 0 340.35 340.35"><defs><style>.cls-1,.cls-2{fill:none;stroke-miterlimit:10;stroke-width:20px;}.cls-1{stroke:#d8d8d8;}.cls-2{stroke:url(#linear-gradient);}.cls-3{fill:#243c73;}.cls-4{fill:#305099;}.cls-5{fill:url(#linear-gradient-2);}.cls-6{font-size:41.14px;fill:#fff;font-family:TTCommons-Bold, TT Commons;font-weight:700;}</style><linearGradient id="linear-gradient" x1="170.03" y1="137.23" x2="340.06" y2="137.23" gradientUnits="userSpaceOnUse"><stop offset="0" stop-color="#305099"/><stop offset="0.53" stop-color="#243c73"/><stop offset="1" stop-color="#18284d"/></linearGradient><linearGradient id="linear-gradient-2" x1="252.29" y1="248.23" x2="340.35" y2="248.23" gradientUnits="userSpaceOnUse"><stop offset="0" stop-color="#305099"/><stop offset="0.53" stop-color="#243c73"/></linearGradient></defs><title>icon 1</title><g id="Плюшки"><path class="cls-1" d="M330.06,170.32a160,160,0,1,1-160-160A159.38,159.38,0,0,1,330.06,170.32Z"/><path class="cls-2" d="M170,10.29A160,160,0,0,1,296.75,268.07"/><path class="cls-3" d="M246.89,127.88c-3.81.77-9.81,3.16-17.5,4.69l3.34,5.5a2,2,0,0,1-.67,2.72,2.1,2.1,0,0,1-.3.15,2,2,0,0,1-2.43-.81l-3.47-5.72a2.24,2.24,0,0,0-2-1l-1.23.13a.76.76,0,0,0-.64,1.25l1.75,2.89a2,2,0,0,1-.67,2.73l-.29.15a2,2,0,0,1-2.44-.82L217.46,135a2.63,2.63,0,0,0-2-1.14l-1.55,0c-.73,0-1,.43-.63,1.05l1.48,2.46a2,2,0,0,1-.67,2.73,1.59,1.59,0,0,1-.29.15,2,2,0,0,1-2.43-.82l-3.07-5a3.26,3.26,0,0,0-2-1.34c-.69-.12-1.39-.25-2.08-.4s-1,.22-.61.84l2.15,3.54a2,2,0,0,1-1,2.88,2,2,0,0,1-2.44-.82l-5.32-8.78c-.54-.27-1-.55-1.45-.8-3.47-2.11-10.21-5.8-14.48-5.63A6.42,6.42,0,0,0,175,131c.19,1.45,1.66,3.4,2.6,4.53a7.6,7.6,0,0,0,2.25,1.88c1.31.66,2.08,1.61,1.39,2.9A46.57,46.57,0,0,1,172,152.68c-8.73,7.89-12.62,3.38-12.62,3.38s-5.2-6.44-9.89-7.64a7.39,7.39,0,0,0-5,1.1,7.17,7.17,0,0,0-1.11,1c2.7,4.41,10.81,14.41,29.34,15.71,24,1.68,64.93-12.41,72.56-15.13.69-.24.74-.13.12.25-4.57,2.78-22.42,13.17-42.23,18.4-24.34,6.41-48.36,8.26-61.46-8.31.05.46.09.89.12,1.26a33,33,0,0,0,2.45,11.67,18.43,18.43,0,0,1,.8,5.12,21.72,21.72,0,0,0,1.35,7c1,2.79,2,5.15,2.64,6.79a5.52,5.52,0,0,0,3.6,3.08,13.18,13.18,0,0,0,3.64.07c1.45-.18,3.74-.39,5.2-.5a10.39,10.39,0,0,0,2.1-.36c1.41-.41,2.91-1.22,3.52-1.42s1.21-.09,1.35.26,1,.35,1.84,0a3.13,3.13,0,0,0,1.83-1.68,2.09,2.09,0,0,1,1.05-1.37.9.9,0,0,1,1.16.49c.18.46,1,.56,1.81.23a2.72,2.72,0,0,0,1.65-1.67,1.9,1.9,0,0,1,.93-1.39,2.06,2.06,0,0,1,1.68.34,2.67,2.67,0,0,0,2.25.12,2.56,2.56,0,0,0,1.51-1.56c.11-.56.77-.83,1.49-.59a5.33,5.33,0,0,0,3.09-.29c1-.39,1.79-1.05,1.79-1.48a1.4,1.4,0,0,1,.91-1.14,2.17,2.17,0,0,1,1.7.1,2.81,2.81,0,0,0,2.33-.58,3.79,3.79,0,0,0,1.64-2.14.75.75,0,0,1,1.09-.68,5.54,5.54,0,0,0,2.8,0,4.24,4.24,0,0,0,2.36-1.37,2.63,2.63,0,0,1,1.46-1.11,1.08,1.08,0,0,1,1.19.59c.17.43,1.08.46,2.05.08a5.11,5.11,0,0,0,2.15-1.46,2.24,2.24,0,0,1,1.34-.95c.52-.11,1,0,1.14.32s.68.32,1.28.08a5.78,5.78,0,0,0,1.78-1.19,3.3,3.3,0,0,1,1.37-.9.78.78,0,0,1,.88.42c.12.31,1.33.13,2.68-.41l.21-.09c1.36-.54,2.31-1.35,2.13-1.8a.94.94,0,0,1,1.74-.69c.18.45,1.29.43,2.48,0a8,8,0,0,0,2.85-1.8,1.78,1.78,0,0,1,1.69-.67,7.89,7.89,0,0,0,3.4-.71c1.33-.53,2.51-1.37,2.64-1.88a3.28,3.28,0,0,1,1-1.53,1.25,1.25,0,0,1,1.46-.05c.39.31,1.7-.09,2.93-.88l.36-.24c1.23-.79,2.19-1.93,2.15-2.53a1.14,1.14,0,0,1,1.89-1.23,2.56,2.56,0,0,0,2.37-.6,3,3,0,0,0,1.14-2.65,2.61,2.61,0,0,1,.62-2.32.79.79,0,0,1,1.34.24c.23.56,1.28.22,2.36-.77s1.78-2.25,1.55-2.82a1.62,1.62,0,0,1,.24-1.64,1.34,1.34,0,0,1,1.29-.34c.35.16,1-.33,1.53-1.08a4.24,4.24,0,0,0,.76-2.26,10.56,10.56,0,0,1,1.23-3.18A12.24,12.24,0,0,0,261,131C255.51,123.14,255,126.26,246.89,127.88Z"/><path class="cls-4" d="M164,210c-3.82-.7-10.29-.71-18-2.14l1.06,6.34a2,2,0,0,1-1.63,2.29l-.34,0a2,2,0,0,1-2-1.65l-1.1-6.6a2.23,2.23,0,0,0-1.5-1.63l-1.2-.34a.76.76,0,0,0-1.05.93l.55,3.32a2,2,0,0,1-1.63,2.29l-.33,0a2,2,0,0,1-2-1.66l-.91-5.48a2.63,2.63,0,0,0-1.45-1.8l-1.42-.62c-.67-.3-1.11,0-1,.75l.47,2.83a2,2,0,0,1-1.64,2.29,1.66,1.66,0,0,1-.32,0,2,2,0,0,1-2-1.66l-1-5.83a3.3,3.3,0,0,0-1.35-2c-.59-.37-1.19-.74-1.78-1.14s-1-.16-.88.56l.69,4.08a2,2,0,0,1-1.64,2.29l-.32,0a2,2,0,0,1-2-1.66l-1.69-10.13c-.4-.46-.76-.9-1-1.29-2.44-3.24-7.33-9.16-11.36-10.59a6.41,6.41,0,0,0-8.33,4.38c-.36,1.41.27,3.77.72,5.17a7.78,7.78,0,0,0,1.4,2.58c1,1.1,1.33,2.27.21,3.21a46.34,46.34,0,0,1-13.14,8.05c-11,4.08-13-1.54-13-1.54s-2.44-7.92-6.35-10.77a7.43,7.43,0,0,0-5-.84,7,7,0,0,0-1.41.54c.87,5.09,4.69,17.39,21.42,25.46,21.69,10.48,64.9,12.56,73,12.87.73,0,.74.15,0,.27-5.27.89-25.71,3.92-46,1.43-25-3.07-48-10.26-54-30.51-.12.44-.24.85-.36,1.21a32.72,32.72,0,0,0-2.05,11.75,18.36,18.36,0,0,1-1.16,5,21.93,21.93,0,0,0-1.36,7c-.08,3-.08,5.51-.06,7.28a5.48,5.48,0,0,0,2.2,4.19,12.51,12.51,0,0,0,3.35,1.42c1.42.37,3.62,1,5,1.47a9.77,9.77,0,0,0,2.08.43c1.46.15,3.16,0,3.8,0s1.16.36,1.16.74.76.68,1.71.68a3.1,3.1,0,0,0,2.31-.88,2.11,2.11,0,0,1,1.49-.88.89.89,0,0,1,.89.88c0,.49.72.88,1.6.88a2.69,2.69,0,0,0,2.15-.93A1.89,1.89,0,0,1,78,241.6a2,2,0,0,1,1.44.94,2.65,2.65,0,0,0,2,.93,2.56,2.56,0,0,0,2-.88c.3-.49,1-.49,1.59,0a5.39,5.39,0,0,0,3,.88c1.07,0,2.06-.31,2.21-.71a1.4,1.4,0,0,1,1.27-.72,2.18,2.18,0,0,1,1.55.72,2.76,2.76,0,0,0,2.37.33,3.69,3.69,0,0,0,2.31-1.38.75.75,0,0,1,1.27-.22,5.51,5.51,0,0,0,2.6,1,4.35,4.35,0,0,0,2.7-.39,2.61,2.61,0,0,1,1.76-.5,1.09,1.09,0,0,1,.89,1c0,.45.83.82,1.87.82a5,5,0,0,0,2.54-.55,2.16,2.16,0,0,1,1.6-.38c.52.09.94.41.94.71s.51.55,1.16.55a5.86,5.86,0,0,0,2.09-.44,3.42,3.42,0,0,1,1.6-.33.78.78,0,0,1,.67.72c0,.34,1.18.61,2.64.61h.23c1.46,0,2.64-.4,2.64-.89a.94.94,0,0,1,1.88,0c0,.49,1,.89,2.32.89a8,8,0,0,0,3.3-.61,1.77,1.77,0,0,1,1.83,0,7.74,7.74,0,0,0,3.42.61c1.43,0,2.84-.35,3.14-.77a3.28,3.28,0,0,1,1.49-1.05,1.25,1.25,0,0,1,1.38.49c.24.43,1.6.54,3,.27l.43-.09c1.44-.28,2.75-1,2.93-1.56s.61-1.1.94-1.16a1.69,1.69,0,0,1,1.27.72,2.56,2.56,0,0,0,2.43.33,3,3,0,0,0,2-2,2.6,2.6,0,0,1,1.44-1.93c.63-.21,1.15.11,1.15.72s1.11.68,2.48.17,2.49-1.44,2.49-2.05a1.61,1.61,0,0,1,.82-1.43,1.34,1.34,0,0,1,1.33.16c.27.28,1.09.08,1.82-.44a4.26,4.26,0,0,0,1.54-1.82,11,11,0,0,1,2.33-2.49A12.22,12.22,0,0,0,176,218.15C173.75,208.83,172.1,211.53,164,210Z"/><circle class="cls-5" cx="296.32" cy="248.23" r="44.03"/><text class="cls-6" transform="translate(263.4 263.11)">35%</text></g></svg>